<svg width="42" height="42" viewBox="0 0 42 42" fill="none" xmlns="http://www.w3.org/2000/svg">
<g filter="url(#filter0_d_840_8109)">
<rect x="2" y="1" width="38" height="38" rx="19" fill="white"/>
<path d="M22.0276 10.0012C22.7573 9.99843 23.4871 10.0058 24.2166 10.0232L24.4106 10.0302C24.6346 10.0382 24.8556 10.0482 25.1226 10.0602C26.1866 10.1102 26.9126 10.2782 27.5496 10.5252C28.2096 10.7792 28.7656 11.1232 29.3216 11.6792C29.83 12.1788 30.2234 12.7832 30.4746 13.4502C30.7216 14.0872 30.8896 14.8142 30.9396 15.8782C30.9516 16.1442 30.9616 16.3662 30.9696 16.5902L30.9756 16.7842C30.9934 17.5134 31.001 18.2428 30.9986 18.9722L30.9996 19.7182V21.0282C31.0021 21.758 30.9944 22.4877 30.9766 23.2172L30.9706 23.4112C30.9626 23.6352 30.9526 23.8562 30.9406 24.1232C30.8906 25.1872 30.7206 25.9132 30.4746 26.5502C30.2242 27.218 29.8307 27.8228 29.3216 28.3222C28.8216 28.8306 28.2169 29.224 27.5496 29.4752C26.9126 29.7222 26.1866 29.8902 25.1226 29.9402C24.8556 29.9522 24.6346 29.9622 24.4106 29.9702L24.2166 29.9762C23.4871 29.994 22.7573 30.0017 22.0276 29.9992L21.2816 30.0002H19.9726C19.2429 30.0027 18.5131 29.995 17.7836 29.9772L17.5896 29.9712C17.3522 29.9626 17.1149 29.9526 16.8776 29.9412C15.8136 29.8912 15.0876 29.7212 14.4496 29.4752C13.7823 29.2246 13.1778 28.8311 12.6786 28.3222C12.1696 27.8225 11.7758 27.2178 11.5246 26.5502C11.2776 25.9132 11.1096 25.1872 11.0596 24.1232C11.0485 23.8859 11.0385 23.6486 11.0296 23.4112L11.0246 23.2172C11.0062 22.4877 10.9978 21.758 10.9996 21.0282V18.9722C10.9968 18.2428 11.0041 17.5134 11.0216 16.7842L11.0286 16.5902C11.0366 16.3662 11.0466 16.1442 11.0586 15.8782C11.1086 14.8132 11.2766 14.0882 11.5236 13.4502C11.775 12.7829 12.1696 12.1787 12.6796 11.6802C13.1785 11.171 13.7826 10.7768 14.4496 10.5252C15.0876 10.2782 15.8126 10.1102 16.8776 10.0602L17.5896 10.0302L17.7836 10.0252C18.5128 10.0068 19.2422 9.99847 19.9716 10.0002L22.0276 10.0012ZM20.9996 15.0012C20.3371 14.9919 19.6794 15.1143 19.0646 15.3613C18.4498 15.6083 17.8902 15.9751 17.4184 16.4403C16.9466 16.9055 16.572 17.4598 16.3163 18.071C16.0606 18.6822 15.9289 19.3382 15.9289 20.0007C15.9289 20.6633 16.0606 21.3192 16.3163 21.9305C16.572 22.5417 16.9466 23.096 17.4184 23.5612C17.8902 24.0264 18.4498 24.3931 19.0646 24.6402C19.6794 24.8872 20.3371 25.0096 20.9996 25.0002C22.3257 25.0002 23.5975 24.4734 24.5351 23.5358C25.4728 22.5981 25.9996 21.3263 25.9996 20.0002C25.9996 18.6741 25.4728 17.4024 24.5351 16.4647C23.5975 15.527 22.3257 15.0012 20.9996 15.0012ZM20.9996 17.0012C21.3981 16.9939 21.7941 17.066 22.1644 17.2134C22.5347 17.3608 22.8719 17.5806 23.1564 17.8598C23.4408 18.139 23.6668 18.4721 23.821 18.8396C23.9753 19.2071 24.0548 19.6016 24.0549 20.0002C24.0549 20.3988 23.9756 20.7934 23.8214 21.1609C23.6673 21.5285 23.4414 21.8617 23.1571 22.141C22.8727 22.4203 22.5356 22.6401 22.1653 22.7876C21.7951 22.9352 21.3991 23.0074 21.0006 23.0002C20.205 23.0002 19.4419 22.6842 18.8793 22.1216C18.3167 21.5589 18.0006 20.7959 18.0006 20.0002C18.0006 19.2046 18.3167 18.4415 18.8793 17.8789C19.4419 17.3163 20.205 17.0002 21.0006 17.0002L20.9996 17.0012ZM26.2496 13.5012C25.927 13.5141 25.6219 13.6514 25.3982 13.8842C25.1745 14.117 25.0496 14.4274 25.0496 14.7502C25.0496 15.0731 25.1745 15.3834 25.3982 15.6163C25.6219 15.8491 25.927 15.9863 26.2496 15.9992C26.5811 15.9992 26.8991 15.8675 27.1335 15.6331C27.3679 15.3987 27.4996 15.0808 27.4996 14.7492C27.4996 14.4177 27.3679 14.0998 27.1335 13.8653C26.8991 13.6309 26.5811 13.4992 26.2496 13.4992V13.5012Z" fill="#333333"/>
</g>
<defs>
<filter id="filter0_d_840_8109" x="0" y="0" width="42" height="42" filterUnits="userSpaceOnUse" color-interpolation-filters="sRGB">
<feFlood flood-opacity="0" result="BackgroundImageFix"/>
<feColorMatrix in="SourceAlpha" type="matrix" values="0 0 0 0 0 0 0 0 0 0 0 0 0 0 0 0 0 0 127 0" result="hardAlpha"/>
<feOffset dy="1"/>
<feGaussianBlur stdDeviation="1"/>
<feComposite in2="hardAlpha" operator="out"/>
<feColorMatrix type="matrix" values="0 0 0 0 0 0 0 0 0 0 0 0 0 0 0 0 0 0 0.1 0"/>
<feBlend mode="normal" in2="BackgroundImageFix" result="effect1_dropShadow_840_8109"/>
<feBlend mode="normal" in="SourceGraphic" in2="effect1_dropShadow_840_8109" result="shape"/>
</filter>
</defs>
</svg>
