<svg width="42" height="42" viewBox="0 0 42 42" fill="none" xmlns="http://www.w3.org/2000/svg">
<g filter="url(#filter0_d_840_8101)">
<rect x="2" y="1" width="38" height="38" rx="19" fill="white"/>
<path d="M15.9404 13C15.9402 13.5305 15.7292 14.0391 15.3539 14.4139C14.9787 14.7888 14.4699 14.9993 13.9394 14.999C13.409 14.9988 12.9004 14.7878 12.5255 14.4125C12.1506 14.0373 11.9402 13.5285 11.9404 12.998C11.9407 12.4676 12.1517 11.959 12.5269 11.5841C12.9022 11.2092 13.411 10.9988 13.9414 10.999C14.4719 10.9993 14.9805 11.2103 15.3554 11.5855C15.7302 11.9608 15.9407 12.4696 15.9404 13ZM16.0004 16.48H12.0004V29H16.0004V16.48ZM22.3204 16.48H18.3404V29H22.2804V22.43C22.2804 18.77 27.0504 18.43 27.0504 22.43V29H31.0004V21.07C31.0004 14.9 23.9404 15.13 22.2804 18.16L22.3204 16.48Z" fill="#333333"/>
</g>
<defs>
<filter id="filter0_d_840_8101" x="0" y="0" width="42" height="42" filterUnits="userSpaceOnUse" color-interpolation-filters="sRGB">
<feFlood flood-opacity="0" result="BackgroundImageFix"/>
<feColorMatrix in="SourceAlpha" type="matrix" values="0 0 0 0 0 0 0 0 0 0 0 0 0 0 0 0 0 0 127 0" result="hardAlpha"/>
<feOffset dy="1"/>
<feGaussianBlur stdDeviation="1"/>
<feComposite in2="hardAlpha" operator="out"/>
<feColorMatrix type="matrix" values="0 0 0 0 0 0 0 0 0 0 0 0 0 0 0 0 0 0 0.1 0"/>
<feBlend mode="normal" in2="BackgroundImageFix" result="effect1_dropShadow_840_8101"/>
<feBlend mode="normal" in="SourceGraphic" in2="effect1_dropShadow_840_8101" result="shape"/>
</filter>
</defs>
</svg>
