<svg width="42" height="42" viewBox="0 0 42 42" fill="none" xmlns="http://www.w3.org/2000/svg">
<g filter="url(#filter0_d_840_8113)">
<rect x="2" y="1" width="38" height="38" rx="19" fill="white"/>
<g clip-path="url(#clip0_840_8113)">
<path d="M26.484 10H15.516C13.0219 10 11 12.0313 11 14.5369V25.4631C11 27.9687 13.0219 30 15.516 30H26.484C28.9781 30 31 27.9687 31 25.4631V14.5369C31 12.0313 28.9781 10 26.484 10Z" fill="#333333"/>
<path d="M24.999 13.6885H27.1314L22.4729 19.0414L27.9531 26.3248H23.6619L20.301 21.9078L16.4549 26.3248H14.3214L19.3039 20.5998L14.0469 13.6885H18.4467L21.4847 17.7263L24.999 13.6885ZM24.2505 25.0418H25.4323L17.805 14.9045H16.537L24.2505 25.0418Z" fill="white"/>
</g>
</g>
<defs>
<filter id="filter0_d_840_8113" x="0" y="0" width="42" height="42" filterUnits="userSpaceOnUse" color-interpolation-filters="sRGB">
<feFlood flood-opacity="0" result="BackgroundImageFix"/>
<feColorMatrix in="SourceAlpha" type="matrix" values="0 0 0 0 0 0 0 0 0 0 0 0 0 0 0 0 0 0 127 0" result="hardAlpha"/>
<feOffset dy="1"/>
<feGaussianBlur stdDeviation="1"/>
<feComposite in2="hardAlpha" operator="out"/>
<feColorMatrix type="matrix" values="0 0 0 0 0 0 0 0 0 0 0 0 0 0 0 0 0 0 0.1 0"/>
<feBlend mode="normal" in2="BackgroundImageFix" result="effect1_dropShadow_840_8113"/>
<feBlend mode="normal" in="SourceGraphic" in2="effect1_dropShadow_840_8113" result="shape"/>
</filter>
<clipPath id="clip0_840_8113">
<rect width="20" height="20" fill="white" transform="translate(11 10)"/>
</clipPath>
</defs>
</svg>
