<svg width="38" height="38" viewBox="0 0 38 38" fill="none" xmlns="http://www.w3.org/2000/svg">
<rect width="38" height="38" rx="19" fill="white"/>
<g clip-path="url(#clip0_1054_990)">
<path d="M8.17134 29.8334L9.63601 24.4514C8.67091 22.797 8.16386 20.9154 8.16701 19.0001C8.16701 13.0168 13.0171 8.16675 19.0003 8.16675C24.9836 8.16675 29.8337 13.0168 29.8337 19.0001C29.8337 24.9833 24.9836 29.8334 19.0003 29.8334C17.0858 29.8365 15.2051 29.3298 13.5512 28.3655L8.17134 29.8334ZM15.0906 13.9171C14.9507 13.9258 14.814 13.9626 14.6887 14.0254C14.5712 14.092 14.4639 14.1752 14.3702 14.2724C14.2402 14.3948 14.1665 14.501 14.0874 14.6039C13.687 15.125 13.4717 15.7646 13.4753 16.4217C13.4775 16.9526 13.6162 17.4693 13.8328 17.9525C14.2759 18.9297 15.005 19.9642 15.9681 20.923C16.1999 21.1537 16.4263 21.3856 16.6701 21.6012C17.8654 22.6536 19.2899 23.4125 20.8301 23.8177L21.4465 23.9119C21.6469 23.9227 21.8473 23.9076 22.0488 23.8978C22.3643 23.8815 22.6724 23.7961 22.9513 23.6476C23.1311 23.5522 23.2156 23.5046 23.3662 23.4092C23.3662 23.4092 23.4128 23.3789 23.5016 23.3117C23.6478 23.2034 23.7378 23.1265 23.8591 22.9997C23.949 22.9066 24.027 22.7972 24.0866 22.6726C24.1711 22.496 24.2556 22.1591 24.2903 21.8785C24.3163 21.664 24.3087 21.547 24.3054 21.4744C24.3011 21.3585 24.2047 21.2382 24.0996 21.1873L23.4691 20.9046C23.4691 20.9046 22.5266 20.494 21.9513 20.2318C21.8907 20.2054 21.8257 20.1903 21.7596 20.1874C21.6855 20.1798 21.6106 20.1881 21.5399 20.2119C21.4693 20.2356 21.4046 20.2742 21.3501 20.325V20.3228C21.3447 20.3228 21.2721 20.3846 20.4888 21.3336C20.4439 21.394 20.382 21.4396 20.311 21.4647C20.24 21.4898 20.1631 21.4932 20.0902 21.4744C20.0196 21.4555 19.9504 21.4316 19.8833 21.4029C19.7489 21.3466 19.7023 21.3249 19.6103 21.2848L19.6048 21.2827C18.9851 21.0121 18.4112 20.6466 17.904 20.1993C17.7675 20.0802 17.6408 19.9502 17.5108 19.8245C17.0845 19.4163 16.7131 18.9546 16.4058 18.4508L16.3418 18.3479C16.2959 18.2788 16.2588 18.2042 16.2313 18.1258C16.1902 17.9666 16.2974 17.8387 16.2974 17.8387C16.2974 17.8387 16.5607 17.5506 16.6831 17.3946C16.785 17.2649 16.8801 17.1301 16.968 16.9905C17.0958 16.7847 17.1359 16.5734 17.0688 16.4098C16.7654 15.6688 16.4513 14.9311 16.1284 14.1987C16.0645 14.0536 15.8749 13.9496 15.7027 13.929C15.6442 13.9225 15.5857 13.916 15.5272 13.9117C15.3817 13.9044 15.2359 13.907 15.0906 13.9171Z" fill="#333333"/>
</g>
<defs>
<clipPath id="clip0_1054_990">
<rect width="26" height="26" fill="white" transform="translate(6 6)"/>
</clipPath>
</defs>
</svg>
